<?xml version="1.0" encoding="utf-8"?>
<!-- Generator: Adobe Illustrator 25.4.1, SVG Export Plug-In . SVG Version: 6.00 Build 0)  -->
<svg version="1.1" id="レイヤー_1" xmlns="http://www.w3.org/2000/svg" xmlns:xlink="http://www.w3.org/1999/xlink" x="0px"
	 y="0px" width="300px" height="300px" viewBox="0 0 300 300" style="enable-background:new 0 0 300 300;" xml:space="preserve">
<style type="text/css">
	.st0{fill:none;stroke:#f87171;stroke-width:8;stroke-linecap:round;stroke-linejoin:round;stroke-miterlimit:10;}
</style>
<g>
	<path class="st0" d="M176.9,212.5h-54c-24-16.84-41.93-46.67-40-70h134C220.1,166.61,199.9,197.44,176.9,212.5z"/>
	<path class="st0" d="M212.01,140.63c0.44-0.5,2.98-3.45,2.89-7.63c-0.11-4.83-3.7-9.35-9.04-11.23c0.02-0.26,0.04-0.51,0.04-0.77
		c0-6.35-5.15-11.5-11.5-11.5c-2.06,0-3.98,0.55-5.65,1.49c0.73-1.51,1.15-3.2,1.15-4.99c0-6.35-5.15-11.5-11.5-11.5
		c-2.15,0-4.15,0.6-5.88,1.63c-1.28-4.96-5.77-8.63-11.12-8.63c-4.29,0-8.02,2.35-10,5.83c-1.98-3.48-5.71-5.83-10-5.83
		c-5.36,0-9.85,3.67-11.12,8.63c-1.72-1.03-3.73-1.63-5.88-1.63c-6.35,0-11.5,5.15-11.5,11.5c0,0.69,0.07,1.36,0.19,2.01
		c-1.68-0.96-3.62-1.51-5.69-1.51c-6.35,0-11.5,5.15-11.5,11.5c0,1.22,0.19,2.4,0.55,3.5c-0.02,0-0.03,0-0.05,0
		c-6.35,0-11.5,5.15-11.5,11.5c0,3.56,1.72,6.12,2.21,6.78"/>
</g>
</svg>
