<svg xmlns="http://www.w3.org/2000/svg" viewBox="0 0 48 48"><title>875_ch_h</title><rect width="48" height="48" fill="none"/><path d="M29.82,16C28.76,10.34,23.2,6,16.5,6,9,6,3,11.37,3,18a11.33,11.33,0,0,0,3.76,8.3,6,6,0,0,1-2.18,4.19,8.84,8.84,0,0,0,6.16-1.65,15.32,15.32,0,0,0,2.26.74" fill="none" stroke="white" stroke-linecap="round" stroke-linejoin="round" stroke-width="2"/><path d="M29.5,19C37,19,43,24.36,43,31a11.33,11.33,0,0,1-3.76,8.3,6,6,0,0,0,2.18,4.18,8.8,8.8,0,0,1-6.16-1.64A15,15,0,0,1,29.5,43C22,43,16,37.61,16,31S22,19,29.5,19Z" fill="none" stroke="white" stroke-linecap="round" stroke-linejoin="round" stroke-width="2"/></svg>
