<!--?xml version="1.0" encoding="utf-8"?-->
<!-- Generator: Adobe Illustrator 18.0.0, SVG Export Plug-In . SVG Version: 6.00 Build 0)  -->

<svg version="1.1" id="_x31_0" xmlns="http://www.w3.org/2000/svg" xmlns:xlink="http://www.w3.org/1999/xlink" x="0px" y="0px" viewBox="0 0 512 512" style="width: 64px; height: 64px; opacity: 1;" xml:space="preserve">
<style type="text/css">
	.st0{fill:#374149;}
</style>
<g>
	<polygon class="st0" points="199.43,420.239 199.43,440.543 199.43,440.606 199.43,440.606 199.43,440.764 312.566,440.764 
		312.566,420.239 	" style="fill: rgb(67, 20, 7);"></polygon>
	<path class="st0" d="M199.43,453.718v21.825c0,20.138,17.682,36.458,39.568,36.458h34.001c21.891,0,39.568-16.319,39.568-36.458
		v-21.825H199.43z" style="fill: rgb(67, 20, 7);"></path>
	<path class="st0" d="M256.033,97.542c-68.45,0-124.078,51.291-124.078,114.367c0,68.06,41.638,149.916,59.513,181.905l4.337,7.773
		h117.541l4.337-7.773c15.414-27.586,62.364-111.578,62.364-181.905C380.046,148.833,324.418,97.542,256.033,97.542z
		 M348.583,223.122c-2.79,36.999-18.525,77.844-33.583,109.802c-1.59,3.366-3.218,6.755-4.921,10.191
		c-2.167,4.391-4.264,8.485-6.291,12.389c-2.093,4.019-4.233,8.074-6.469,12.183c-0.998,1.838-1.985,3.641-2.886,5.278h-79.651
		c-18.393-34.133-51.81-104.006-51.81-161.055c0-47.341,41.704-85.806,93.061-85.806c51.287,0,92.991,38.466,92.991,85.806
		c0,3.405-0.15,6.867-0.394,10.354C348.61,222.553,348.606,222.831,348.583,223.122z" style="fill: rgb(67, 20, 7);"></path>
	<path class="st0" d="M255.998,63.362c3.884,0,7.03-3.149,7.03-7.03l3.915-45.387C266.943,4.902,262.046,0,255.998,0
		c-6.044,0-10.942,4.902-10.942,10.946l3.911,45.387C248.968,60.214,252.118,63.362,255.998,63.362z" style="fill: rgb(67, 20, 7);"></path>
	<path class="st0" d="M126.441,112.905c2.743,2.747,7.196,2.747,9.943,0c2.743-2.743,2.743-7.192,0-9.935l-29.327-34.864
		c-4.275-4.271-11.204-4.271-15.476,0c-4.275,4.276-4.275,11.205,0,15.48L126.441,112.905z" style="fill: rgb(67, 20, 7);"></path>
	<path class="st0" d="M79.808,225.497l-45.387-3.915c-6.043,0-10.946,4.902-10.946,10.942c0,6.047,4.902,10.949,10.946,10.949
		l45.387-3.919c3.881,0,7.026-3.146,7.026-7.03C86.834,228.642,83.689,225.497,79.808,225.497z" style="fill: rgb(67, 20, 7);"></path>
	<path class="st0" d="M404.939,68.106l-29.323,34.864c-2.743,2.743-2.743,7.192,0,9.935c2.747,2.747,7.196,2.747,9.943,0
		l34.86-29.319c4.275-4.275,4.275-11.204,0-15.48C416.144,63.834,409.214,63.834,404.939,68.106z" style="fill: rgb(67, 20, 7);"></path>
	<path class="st0" d="M477.579,221.582l-45.387,3.915c-3.88,0-7.026,3.146-7.026,7.026c0,3.884,3.146,7.03,7.026,7.03l45.387,3.919
		c6.044,0,10.946-4.902,10.946-10.949C488.525,226.483,483.623,221.582,477.579,221.582z" style="fill: rgb(67, 20, 7);"></path>
	<path class="st0" d="M126.441,353.085l-34.86,29.319c-4.275,4.275-4.275,11.205,0,15.48c4.272,4.271,11.201,4.271,15.476,0
		l29.327-34.864c2.743-2.742,2.743-7.192,0-9.935C133.637,350.334,129.184,350.334,126.441,353.085z" style="fill: rgb(67, 20, 7);"></path>
	<path class="st0" d="M385.559,353.085c-2.747-2.751-7.196-2.751-9.943,0c-2.743,2.743-2.743,7.193,0,9.935l29.323,34.864
		c4.275,4.271,11.205,4.271,15.48,0c4.275-4.275,4.275-11.205,0-15.48L385.559,353.085z" style="fill: rgb(67, 20, 7);"></path>
</g>
</svg>
